<?xml version="1.0" encoding="UTF-8"?><svg id="Layer_2" xmlns="http://www.w3.org/2000/svg" viewBox="0 0 806.74 806.74"><defs><style>.cls-1{fill:#00dbe6;}.cls-2{fill:#fff;}.cls-3{fill:#152644;}</style></defs><g id="Layer_2-2"><circle class="cls-2" cx="403.37" cy="403.37" r="403.37"/><g id="Layer_1-2"><circle class="cls-3" cx="403.37" cy="403.37" r="391.36"/><g><circle class="cls-1" cx="570.37" cy="305.03" r="99.68"/><path class="cls-1" d="M445.72,493.48h.08c-13.07-5.26-60.77-26.28-88.41-79.98-21.64-42.05-19.3-81.44-17.47-97.28,.92-5.52,1.42-11.17,1.42-16.95,0-56.52-45.81-102.33-102.33-102.33s-102.15,49.57-102.33,102.33c-.12,34.31,20.99,66.43,45.38,84.04,7.07,5.1,13.61,8.4,18.28,10.46h-.03c14.66,6.41,53.81,25.83,81.66,70.62,28.85,46.39,28.05,91.79,27.06,107.59-.84,4.72-1.49,10.46-1.52,16.92-.16,47.78,35.66,85.58,72,97.76,14.84,4.97,26.89,4.57,30.33,4.57,56.52,0,102.33-45.81,102.33-102.33,0-39.69-25.79-72.71-51.66-88.24-5.77-3.46-10.99-5.73-14.82-7.19h.03Z"/></g></g></g></svg>
