<?xml version="1.0" encoding="UTF-8"?>
<svg id="Layer_2" xmlns="http://www.w3.org/2000/svg" viewBox="0 0 139.33 87.11">
  <defs>
    <style>
      .cls-1 {
        font-family: FranklinGothic-Heavy, 'Franklin Gothic Heavy';
        font-size: 2.26px;
        font-weight: 800;
        letter-spacing: 0em;
      }

      .cls-1, .cls-2 {
        fill: #152644;
      }

      .cls-3 {
        fill: #00dbe6;
      }
    </style>
  </defs>
  <g id="Layer_1-2" data-name="Layer_1">
    <g>
      <circle class="cls-3" cx="133.38" cy="5.95" r="5.95"/>
      <path class="cls-3" d="M124.43,18.38h0c-.81-.33-3.77-1.63-5.48-4.96-1.34-2.61-1.2-5.05-1.08-6.03.05-.34.09-.7.09-1.05C117.97,2.84,115.12,0,111.62,0s-6.33,3.07-6.34,6.34c0,2.12,1.3,4.12,2.81,5.21.44.32.85.52,1.14.65h0c.91.4,3.34,1.6,5.06,4.38,1.79,2.88,1.73,5.69,1.67,6.67-.05.29-.1.65-.1,1.05,0,2.96,2.21,5.3,4.46,6.06.92.31,1.66.28,1.88.28,3.5,0,6.34-2.84,6.34-6.34,0-2.46-1.6-4.51-3.21-5.47-.36-.21-.68-.35-.92-.45h0Z"/>
      <path class="cls-2" d="M50.35,43.22c-9.1,0-16.47,7.12-16.47,15.89s7.37,15.89,16.47,15.89,16.47-7.12,16.47-15.89-7.37-15.89-16.47-15.89ZM50.35,67.7c-4.74,0-8.59-3.84-8.59-8.59s3.84-8.59,8.59-8.59,8.59,3.84,8.59,8.59-3.84,8.59-8.59,8.59Z"/>
      <path class="cls-2" d="M25.86,44.07l-8.51,18.15c-.05.11-.21.11-.26,0l-8.51-18.15c-.02-.05-.08-.08-.13-.08H.15c-.11,0-.18.11-.13.21,1.21,2.61,13.12,28.33,14.2,30.65.05.11.15.17.27.17h5.4c.17,0,.33-.1.4-.26l14.15-30.56c.04-.1-.03-.21-.13-.21h-8.3c-.06,0-.11.03-.13.08Z"/>
      <path class="cls-2" d="M94.39,34.84l.15,12.19c0,.13-.14.2-.24.12-2.15-1.71-5.03-3.33-8.53-3.46-7.41-.27-16.56,6.17-16.47,15.89.09,9.9,9.62,15.83,16.85,15.57,3.74-.13,6.69-1.91,8.45-3.21.1-.07.23,0,.24.12l.03,2.18c0,.08.07.15.15.15h7.44c.16,0,.29-.13.29-.29v-39.26c0-.08-.07-.15-.15-.15h-8.06c-.08,0-.15.07-.15.15ZM88.6,67.72c-6.9,2.21-13.17-4.06-10.96-10.96.8-2.5,2.81-4.51,5.31-5.31,6.9-2.21,13.17,4.06,10.96,10.96-.8,2.5-2.81,4.51-5.31,5.31Z"/>
      <path class="cls-2" d="M138.95,73.77l-.04-15.26c.02-.27.05-.53.04-.8,0-.2-.03-.4-.05-.6v-.24s-.02.03-.02.03c-.64-6.89-8.04-14.17-16.79-13.94-8.34.21-16.15,7.19-16.15,16.15,0,8.75,7.47,15.71,14.93,16.04,4.04.18,7.37-1.62,9.86-3.65.1-.08.24-.01.24.12v2.16c0,.08.06.14.14.14h7.68c.08,0,.15-.07.15-.15ZM125.05,67.12c-6.47,1.82-12.25-3.96-10.43-10.43.76-2.68,2.9-4.83,5.58-5.58,6.47-1.82,12.25,3.96,10.43,10.43-.76,2.68-2.9,4.83-5.58,5.58Z"/>
      <text class="cls-1" transform="translate(135.57 45.12)"><tspan x="0" y="0">TM</tspan></text>
      <path class="cls-2" d="M27.59,85.49c0,.9-.6,1.61-1.56,1.61s-1.55-.71-1.55-1.61v-1.79c0-.9.58-1.61,1.54-1.61s1.55.67,1.55,1.55v.02h-.66v-.02c0-.53-.33-.92-.89-.92s-.88.42-.88.99v1.78c0,.57.32.99.9.99s.9-.42.9-.98v-.06h.67v.06Z"/>
      <path class="cls-2" d="M31.07,86.37h1.78v.62h-2.44v-4.79h.66v4.17Z"/>
      <path class="cls-2" d="M36.18,82.82v1.4h1.52v.62h-1.52v1.53h1.94v.62h-2.6v-4.79h2.6v.62h-1.94Z"/>
      <path class="cls-2" d="M43.14,85.86h-1.56l-.33,1.13h-.71l1.48-4.79h.66l1.48,4.79h-.7l-.33-1.13ZM42.96,85.24l-.6-2.07-.6,2.07h1.2Z"/>
      <path class="cls-2" d="M49.97,82.2v4.79h-.59l-1.94-3.47v3.47h-.66v-4.79h.61l1.92,3.38v-3.38h.66Z"/>
      <path class="cls-2" d="M53.7,82.2v4.79h-.66v-4.79h.66Z"/>
      <path class="cls-2" d="M59.96,82.2v4.79h-.59l-1.94-3.47v3.47h-.66v-4.79h.61l1.92,3.38v-3.38h.66Z"/>
      <path class="cls-2" d="M66.05,84.5c-.01.39-.03.78-.04,1.17-.03.16-.06.32-.09.49-.02.15-.1.44-.34.66-.37.35-.88.31-1.18.29-.25-.02-.61-.05-.94-.31-.36-.28-.56-.73-.56-1.25v-1.85c0-.9.61-1.61,1.59-1.61s1.53.68,1.53,1.54v.03h-.66v-.03c0-.51-.32-.92-.87-.92s-.92.42-.92.99v1.78c0,.59.34.99.93.99s.94-.34.94-.98v-.38h-.97v-.62h1.58Z"/>
      <path class="cls-2" d="M75.45,86.99c-.13-.13-.25-.26-.42-.45-.39.36-.83.52-1.33.52-.88,0-1.4-.59-1.4-1.27,0-.62.37-1.05.89-1.33v-.02c-.24-.3-.38-.63-.38-.95,0-.55.4-1.12,1.15-1.12.57,0,1,.38,1,.96,0,.48-.28.86-1,1.21v.02c.38.44.82.94,1.11,1.27.21-.32.35-.75.44-1.33h.54c-.12.72-.32,1.28-.65,1.68.24.26.48.51.75.8h-.7ZM74.74,86.21c-.27-.3-.78-.85-1.28-1.43-.24.16-.59.45-.59.92,0,.52.38.92.93.92.39,0,.72-.17.94-.41ZM73.36,83.43c0,.32.15.57.34.82.46-.26.75-.51.75-.89,0-.28-.16-.59-.53-.59s-.57.31-.57.66Z"/>
      <g>
        <path class="cls-2" d="M82.47,84.84h-.31v2.15h-.66v-4.79h1.35c.99,0,1.43.65,1.43,1.32,0,.59-.34,1.16-1.09,1.29l1.53,2.18h-.78l-1.46-2.15ZM82.15,84.22h.69c.5,0,.76-.29.76-.7s-.26-.7-.76-.7h-.69v1.4Z"/>
        <path class="cls-2" d="M87.93,82.82v1.4h1.52v.62h-1.52v1.53h1.94v.62h-2.6v-4.79h2.6v.62h-1.94Z"/>
        <path class="cls-2" d="M94.87,83.57c0-.52-.37-.85-.84-.85-.41,0-.76.23-.76.66,0,.4.3.62.73.78l.49.18c.62.23,1.11.6,1.11,1.37,0,.88-.74,1.39-1.54,1.39s-1.56-.56-1.56-1.52v-.12h.66v.11c0,.54.38.91.9.91.49,0,.88-.28.88-.74s-.32-.64-.78-.82l-.49-.18c-.6-.23-1.06-.6-1.06-1.33s.59-1.31,1.42-1.31,1.49.6,1.49,1.46v.12h-.65v-.11Z"/>
        <path class="cls-2" d="M101.04,82.82h-1.21v4.17h-.66v-4.17h-1.21v-.62h3.08v.62Z"/>
        <path class="cls-2" d="M106.74,83.7v1.78c0,.91-.61,1.61-1.61,1.61s-1.61-.7-1.61-1.61v-1.78c0-.91.61-1.61,1.61-1.61s1.61.7,1.61,1.61ZM104.17,83.7v1.78c0,.57.34.99.96.99s.96-.42.96-.99v-1.78c0-.57-.34-.99-.96-.99s-.96.42-.96.99Z"/>
        <path class="cls-2" d="M110.65,84.84h-.31v2.15h-.66v-4.79h1.35c.99,0,1.43.65,1.43,1.32,0,.59-.34,1.16-1.09,1.29l1.53,2.18h-.78l-1.46-2.15ZM110.34,84.22h.69c.5,0,.76-.29.76-.7s-.26-.7-.76-.7h-.69v1.4Z"/>
        <path class="cls-2" d="M117.61,85.86h-1.56l-.33,1.13h-.71l1.48-4.79h.66l1.48,4.79h-.7l-.33-1.13ZM117.43,85.24l-.6-2.07-.6,2.07h1.2Z"/>
        <path class="cls-2" d="M123.56,82.82h-1.21v4.17h-.66v-4.17h-1.21v-.62h3.08v.62Z"/>
        <path class="cls-2" d="M126.9,82.2v4.79h-.66v-4.79h.66Z"/>
        <path class="cls-2" d="M133.08,83.7v1.78c0,.91-.61,1.61-1.61,1.61s-1.61-.7-1.61-1.61v-1.78c0-.91.61-1.61,1.61-1.61s1.61.7,1.61,1.61ZM130.51,83.7v1.78c0,.57.34.99.96.99s.96-.42.96-.99v-1.78c0-.57-.34-.99-.96-.99s-.96.42-.96.99Z"/>
        <path class="cls-2" d="M139.21,82.2v4.79h-.59l-1.94-3.47v3.47h-.66v-4.79h.61l1.92,3.38v-3.38h.66Z"/>
      </g>
    </g>
  </g>
</svg>
